<mxfile host="65bd71144e">
    <diagram id="CZrbiJmH5w_cVp2vCyCx" name="Page-1">
        <mxGraphModel dx="1092" dy="655" grid="1" gridSize="10" guides="1" tooltips="1" connect="1" arrows="1" fold="1" page="1" pageScale="1" pageWidth="850" pageHeight="1100" math="0" shadow="0">
            <root>
                <mxCell id="0"/>
                <mxCell id="1" parent="0"/>
                <mxCell id="3" value="&quot;tutorial one&quot;" style="whiteSpace=wrap;html=1;" vertex="1" parent="1">
                    <mxGeometry x="130" y="80" width="120" height="60" as="geometry"/>
                </mxCell>
                <mxCell id="8" value="" style="edgeStyle=none;html=1;" edge="1" parent="1" source="4">
                    <mxGeometry relative="1" as="geometry">
                        <mxPoint x="310" y="250" as="targetPoint"/>
                    </mxGeometry>
                </mxCell>
                <mxCell id="4" value="&quot;tutorial two&quot;" style="whiteSpace=wrap;html=1;" vertex="1" parent="1">
                    <mxGeometry x="250" y="80" width="120" height="60" as="geometry"/>
                </mxCell>
                <mxCell id="5" value="&quot;tutorial three&quot;" style="whiteSpace=wrap;html=1;" vertex="1" parent="1">
                    <mxGeometry x="370" y="80" width="120" height="60" as="geometry"/>
                </mxCell>
                <mxCell id="6" value="&quot;tutorial four&quot;" style="whiteSpace=wrap;html=1;" vertex="1" parent="1">
                    <mxGeometry x="490" y="80" width="120" height="60" as="geometry"/>
                </mxCell>
                <mxCell id="14" value="" style="edgeStyle=none;html=1;" edge="1" parent="1" source="9" target="13">
                    <mxGeometry relative="1" as="geometry"/>
                </mxCell>
                <mxCell id="9" value="&quot;tutorial&quot;" style="whiteSpace=wrap;html=1;" vertex="1" parent="1">
                    <mxGeometry x="240" y="250" width="70" height="60" as="geometry"/>
                </mxCell>
                <mxCell id="18" style="edgeStyle=none;html=1;entryX=0.65;entryY=-0.05;entryDx=0;entryDy=0;entryPerimeter=0;" edge="1" parent="1" source="10" target="17">
                    <mxGeometry relative="1" as="geometry"/>
                </mxCell>
                <mxCell id="10" value="&quot;two&quot;" style="whiteSpace=wrap;html=1;" vertex="1" parent="1">
                    <mxGeometry x="310" y="250" width="100" height="60" as="geometry"/>
                </mxCell>
                <mxCell id="11" value=".map&lt;br&gt;.split(' ') to split string into their own array" style="text;html=1;align=center;verticalAlign=middle;resizable=0;points=[];autosize=1;strokeColor=none;fillColor=none;" vertex="1" parent="1">
                    <mxGeometry x="305" y="180" width="240" height="40" as="geometry"/>
                </mxCell>
                <mxCell id="20" style="edgeStyle=none;html=1;entryX=0.5;entryY=0;entryDx=0;entryDy=0;" edge="1" parent="1" source="13" target="19">
                    <mxGeometry relative="1" as="geometry"/>
                </mxCell>
                <mxCell id="13" value="&quot;Tutorial&quot;" style="whiteSpace=wrap;html=1;" vertex="1" parent="1">
                    <mxGeometry x="215" y="430" width="120" height="60" as="geometry"/>
                </mxCell>
                <mxCell id="15" value=".map&lt;br&gt;capitalization process" style="text;html=1;align=center;verticalAlign=middle;resizable=0;points=[];autosize=1;strokeColor=none;fillColor=none;" vertex="1" parent="1">
                    <mxGeometry x="270" y="340" width="140" height="40" as="geometry"/>
                </mxCell>
                <mxCell id="21" style="edgeStyle=none;html=1;entryX=0.5;entryY=0;entryDx=0;entryDy=0;" edge="1" parent="1" source="17" target="19">
                    <mxGeometry relative="1" as="geometry"/>
                </mxCell>
                <mxCell id="17" value="&quot;Two&quot;" style="whiteSpace=wrap;html=1;" vertex="1" parent="1">
                    <mxGeometry x="335" y="430" width="120" height="60" as="geometry"/>
                </mxCell>
                <mxCell id="23" style="edgeStyle=none;html=1;entryX=0.4;entryY=-0.033;entryDx=0;entryDy=0;entryPerimeter=0;" edge="1" parent="1" source="19" target="4">
                    <mxGeometry relative="1" as="geometry">
                        <mxPoint x="50" y="230" as="targetPoint"/>
                        <Array as="points">
                            <mxPoint x="80" y="620"/>
                            <mxPoint x="80" y="20"/>
                            <mxPoint x="298" y="20"/>
                        </Array>
                    </mxGeometry>
                </mxCell>
                <mxCell id="19" value="&quot;Tutorial Two&quot;" style="whiteSpace=wrap;html=1;" vertex="1" parent="1">
                    <mxGeometry x="280" y="590" width="120" height="60" as="geometry"/>
                </mxCell>
                <mxCell id="22" value=".join(' ')" style="text;html=1;align=center;verticalAlign=middle;resizable=0;points=[];autosize=1;strokeColor=none;fillColor=none;" vertex="1" parent="1">
                    <mxGeometry x="310" y="510" width="60" height="30" as="geometry"/>
                </mxCell>
                <mxCell id="24" value="replacing original value in array (via .map)" style="text;html=1;align=center;verticalAlign=middle;resizable=0;points=[];autosize=1;strokeColor=none;fillColor=none;" vertex="1" parent="1">
                    <mxGeometry x="30" y="620" width="250" height="30" as="geometry"/>
                </mxCell>
            </root>
        </mxGraphModel>
    </diagram>
</mxfile>